<?xml version="1.0"?>
<svg xmlns="http://www.w3.org/2000/svg" xmlns:xlink="http://www.w3.org/1999/xlink" xmlns:svgjs="http://svgjs.com/svgjs" version="1.1" width="512" height="512" x="0" y="0" viewBox="0 0 512 512" style="enable-background:new 0 0 512 512" xml:space="preserve" class=""><g><g xmlns="http://www.w3.org/2000/svg"><path d="m256 392c74.991 0 136-61.01 136-136s-61.009-136-136-136-136 61.01-136 136 61.009 136 136 136zm0-257c66.72 0 121 54.28 121 121s-54.28 121-121 121-121-54.28-121-121 54.28-121 121-121z" fill="#929ad9" data-original="#000000" style="" class=""/><path d="m256 255c28.949 0 52.5-23.552 52.5-52.5s-23.551-52.5-52.5-52.5-52.5 23.552-52.5 52.5 23.551 52.5 52.5 52.5zm0-90c20.678 0 37.5 16.822 37.5 37.5s-16.822 37.5-37.5 37.5-37.5-16.822-37.5-37.5 16.822-37.5 37.5-37.5z" fill="#929ad9" data-original="#000000" style="" class=""/><path d="m167.218 313.92c19.678 30.106 52.867 48.08 88.782 48.08s69.104-17.974 88.782-48.08c.797-1.22 1.222-2.646 1.222-4.104v-2.316c0-20.678-16.822-37.5-37.5-37.5h-105.008c-20.678 0-37.5 16.822-37.5 37.5v2.316c0 1.457.424 2.884 1.222 4.104zm13.778-6.42c0-12.406 10.093-22.5 22.5-22.5h105.009c12.407 0 22.5 10.094 22.5 22.5-17.03 24.788-44.904 39.5-75.005 39.5s-57.975-14.712-75.004-39.5z" fill="#929ad9" data-original="#000000" style="" class=""/><path d="m506.319 226.224-27.286-6.821c-2.408-14.771-6.285-29.276-11.56-43.246l20.197-19.529c2.474-2.393 3.002-6.161 1.282-9.142l-22.5-38.971c-1.72-2.98-5.249-4.409-8.558-3.461l-27.055 7.739c-9.472-11.551-20.082-22.16-31.633-31.633l7.739-27.055c.946-3.309-.48-6.837-3.461-8.558l-38.971-22.5c-2.98-1.721-6.75-1.19-9.142 1.281l-19.529 20.197c-13.971-5.275-28.475-9.152-43.246-11.56l-6.821-27.286c-.834-3.337-3.834-5.679-7.275-5.679h-45c-3.441 0-6.441 2.342-7.276 5.681l-6.822 27.286c-14.771 2.408-29.276 6.285-43.246 11.561l-19.529-20.198c-2.392-2.475-6.161-3.002-9.142-1.282l-38.971 22.5c-2.98 1.721-4.407 5.249-3.461 8.558l7.74 27.055c-11.551 9.473-22.161 20.082-31.633 31.633l-27.055-7.739c-3.308-.943-6.837.479-8.558 3.461l-22.5 38.971c-1.721 2.98-1.192 6.749 1.282 9.142l20.197 19.529c-5.275 13.972-9.152 28.476-11.56 43.246l-27.286 6.821c-3.338.834-5.68 3.834-5.68 7.275v45c0 3.441 2.342 6.441 5.681 7.276l27.286 6.821c2.408 14.771 6.285 29.276 11.56 43.246l-20.197 19.53c-2.474 2.393-3.002 6.161-1.282 9.142l22.5 38.971c1.72 2.979 5.247 4.404 8.558 3.461l27.055-7.739c9.472 11.551 20.082 22.16 31.633 31.633l-7.739 27.055c-.946 3.309.48 6.837 3.461 8.558l38.971 22.5c2.98 1.72 6.749 1.191 9.142-1.281l19.529-20.197c13.971 5.275 28.475 9.152 43.246 11.56l6.821 27.286c.834 3.339 3.834 5.681 7.276 5.681h45c3.441 0 6.441-2.342 7.276-5.681l6.822-27.286c14.772-2.408 29.276-6.285 43.246-11.561l19.529 20.197c2.392 2.476 6.16 3.003 9.142 1.282l38.971-22.5c2.98-1.721 4.407-5.249 3.461-8.558l-7.74-27.055c11.551-9.473 22.161-20.082 31.633-31.633l27.055 7.739c3.309.944 6.837-.48 8.558-3.461l22.5-38.971c1.721-2.98 1.192-6.749-1.282-9.142l-20.197-19.529c5.275-13.971 9.152-28.476 11.56-43.246l27.286-6.821c3.339-.835 5.681-3.835 5.681-7.276v-45c-.002-3.442-2.344-6.442-5.683-7.277zm-9.319 46.421-26.453 6.612c-2.966.742-5.186 3.21-5.609 6.237-2.374 16.974-6.822 33.615-13.222 49.463-1.144 2.833-.455 6.077 1.741 8.2l19.576 18.929-16.644 28.828-26.22-7.5c-2.935-.843-6.084.184-7.967 2.586-10.551 13.471-22.732 25.65-36.204 36.203-2.403 1.882-3.425 5.032-2.586 7.967l7.501 26.22-28.829 16.645-18.929-19.576c-2.124-2.197-5.368-2.888-8.2-1.741-15.846 6.399-32.487 10.848-49.462 13.222-3.028.424-5.496 2.643-6.237 5.608l-6.612 26.452h-33.288l-6.613-26.453c-.741-2.966-3.209-5.185-6.237-5.608-16.974-2.374-33.616-6.822-49.463-13.221-2.833-1.146-6.076-.456-8.2 1.74l-18.929 19.576-28.829-16.645 7.5-26.22c.839-2.935-.183-6.085-2.586-7.967-13.47-10.552-25.651-22.731-36.202-36.202-1.882-2.403-5.034-3.429-7.967-2.586l-26.22 7.5-16.644-28.828 19.576-18.929c2.196-2.123 2.885-5.367 1.741-8.2-6.399-15.846-10.848-32.487-13.222-49.463-.423-3.027-2.643-5.495-5.609-6.237l-26.452-6.612v-33.289l26.453-6.612c2.966-.742 5.186-3.21 5.609-6.237 2.374-16.974 6.822-33.615 13.222-49.463 1.144-2.833.455-6.077-1.741-8.2l-19.576-18.929 16.644-28.828 26.22 7.5c2.935.841 6.085-.185 7.967-2.586 10.551-13.471 22.732-25.65 36.204-36.203 2.403-1.882 3.425-5.032 2.586-7.967l-7.501-26.22 28.829-16.645 18.929 19.576c2.124 2.197 5.368 2.888 8.2 1.741 15.846-6.399 32.488-10.848 49.462-13.222 3.028-.424 5.496-2.643 6.237-5.608l6.612-26.453h33.288l6.613 26.453c.741 2.966 3.209 5.185 6.237 5.608 16.974 2.374 33.616 6.822 49.463 13.221 2.833 1.146 6.076.456 8.2-1.74l18.929-19.576 28.829 16.645-7.5 26.22c-.839 2.935.183 6.085 2.586 7.967 13.472 10.553 25.652 22.732 36.204 36.203 1.882 2.402 5.033 3.426 7.967 2.586l26.22-7.5 16.644 28.828-19.576 18.929c-2.196 2.124-2.885 5.367-1.741 8.2 6.399 15.847 10.848 32.488 13.222 49.463.423 3.027 2.643 5.495 5.609 6.237l26.45 6.611z" fill="#929ad9" data-original="#000000" style="" class=""/><path d="m256 60c-46.574 0-91.72 16.63-127.122 46.826-3.151 2.688-3.527 7.422-.839 10.573 2.688 3.152 7.422 3.527 10.573.839 32.69-27.883 74.379-43.238 117.388-43.238 99.804 0 181 81.196 181 181s-81.196 181-181 181-181-81.196-181-181c0-43.01 15.355-84.698 43.238-117.387 2.688-3.151 2.313-7.885-.839-10.573-3.151-2.689-7.885-2.313-10.573.839-30.196 35.4-46.826 80.547-46.826 127.121 0 108.075 87.925 196 196 196s196-87.925 196-196-87.925-196-196-196z" fill="#929ad9" data-original="#000000" style="" class=""/></g></g></svg>
