<?xml version="1.0"?>
<svg xmlns="http://www.w3.org/2000/svg" xmlns:xlink="http://www.w3.org/1999/xlink" xmlns:svgjs="http://svgjs.com/svgjs" version="1.1" width="512" height="512" x="0" y="0" viewBox="0 0 512 512" style="enable-background:new 0 0 512 512" xml:space="preserve" class=""><g><g xmlns="http://www.w3.org/2000/svg"><path d="m420.798 329.691c-12.568 0-24.55 2.554-35.455 7.17-16.378-5.116-56.832-14.323-86.061-20.761 14.427-13.138 25.068-25.727 33.211-39.109 13.545-22.254 19.787-46.046 19.642-74.8l.005-75.023c0-33.92-13.247-65.842-37.302-89.885-24.053-24.042-55.991-37.283-89.928-37.283-70.157 0-127.234 57.047-127.234 127.168l.001 74.868c-.144 28.884 6.097 52.701 19.642 74.954 8.067 13.255 18.582 25.732 32.8 38.735-29.061 6.389-71.577 16.028-88.116 21.245-37.666 11.882-62.003 42.103-62.003 76.991v83.039c0 8.284 6.719 15 15.008 15h405.79c50.289 0 91.202-40.892 91.202-91.155 0-50.262-40.913-91.154-91.202-91.154zm-145.662 69.459-8.512-14.996c2.861-6 4.467-12.709 4.467-19.787v-23.703c8.598 1.854 23.424 5.076 39.517 8.694zm-34.06-34.783c0 8.91-7.252 16.158-16.167 16.158s-16.167-7.249-16.167-16.158v-13.25c5.309 1.047 10.725 1.597 16.166 1.597s10.859-.55 16.169-1.597v13.25zm-57.885 19.783-9.447 16.648-36.644-51.442c17.173-3.859 33.001-7.291 41.626-9.146v24.157c0 7.076 1.606 13.783 4.465 19.783zm22.042 21.966c5.973 2.823 12.641 4.41 19.675 4.41 7.033 0 13.7-1.586 19.672-4.408l11.348 19.993-32.079 45.028-30.9-43.378zm137.026-49.465c3.903.928 7.678 1.84 11.257 2.723-14.848 16.22-23.92 37.806-23.92 61.472 0 23.511 8.953 44.971 23.628 61.155h-100.265zm-117.349-326.651c25.92 0 50.32 10.12 68.705 28.497 18.335 18.326 28.453 42.63 28.508 68.455l-30.631-30.615c-2.814-2.813-6.632-4.393-10.612-4.393h-115.113c-3.98 0-7.798 1.58-10.612 4.393l-27.395 27.381c1.825-51.987 44.7-93.718 97.15-93.718zm-97.217 172.11v-35.899l44.291-44.268h102.681l47.459 47.434-.002 32.887c.116 23.038-4.736 41.829-15.27 59.135-10.044 16.505-25.31 32.061-49.499 50.439-9.229 7.013-20.751 10.875-32.445 10.875-11.863 0-23.082-3.76-32.446-10.875-24.187-18.377-39.453-33.934-49.499-50.44-10.534-17.304-15.386-36.12-15.27-59.288zm-97.677 211.851c0-26.131 21.19-42.126 41.021-48.382 7.135-2.251 19.912-5.484 34.412-8.931l89.293 125.352h-164.726zm390.782 68.039c-33.738 0-61.186-27.434-61.186-61.155s27.448-61.155 61.186-61.155 61.186 27.434 61.186 61.155-27.447 61.155-61.186 61.155z" fill="#950809" data-original="#000000" style=""/><path d="m448.754 393.091c-5.857-5.858-15.355-5.858-21.213 0l-6.696 6.696-6.696-6.696c-5.857-5.858-15.355-5.858-21.213 0s-5.858 15.355 0 21.213l6.696 6.696-6.696 6.696c-5.858 5.858-5.858 15.355 0 21.213 2.929 2.929 6.768 4.394 10.606 4.394s7.678-1.464 10.606-4.394l6.696-6.696 6.696 6.696c2.929 2.929 6.768 4.394 10.606 4.394s7.678-1.464 10.606-4.394c5.858-5.858 5.858-15.355 0-21.213l-6.694-6.696 6.696-6.696c5.858-5.858 5.858-15.355 0-21.213z" fill="#950809" data-original="#000000" style=""/></g></g></svg>
